# xmcd
# 
# Track frame offsets:
#     150
#     2805
#     20705
#     38975
#     57002
#     74525
#     88412
#     105354
#     127015
#     143112
#     158160
#     172360
#     187640
# 
# Disc length: 2725
# 
# Revision: 3
# Processed by: cddbd v1.5.2PL0 Copyright (c) Steve Scherf et al.
# Submitted via: fre:ac v1.0.31
# 
DISCID=b30aa30d
DTITLE=Crystal Bernard - The Girl Next Door
DYEAR=1996
DGENRE=Rock/Pop
TTITLE0=Intro
TTITLE1=Could Have Been Mine
TTITLE2=You're Gonna Miss A Whole Lotta Love
TTITLE3=Eleven Roses
TTITLE4=Have We Forgotten What Love Is
TTITLE5=This Purple Heart
TTITLE6=State Of Mind
TTITLE7=Too Far This Time
TTITLE8=Miracle
TTITLE9=When You Took Your Love Away
TTITLE10=Till I Get Over You
TTITLE11=Call It Love
TTITLE12=If You Have Love
EXTD=YEAR: 1996 ID3G:   2
EXTT0=
EXTT1=
EXTT2=
EXTT3=
EXTT4=
EXTT5=
EXTT6=
EXTT7=
EXTT8=
EXTT9=
EXTT10=
EXTT11=
EXTT12=
PLAYORDER=
